<svg width="79" height="79" viewBox="0 0 79 79" fill="none" xmlns="http://www.w3.org/2000/svg">
<rect width="79" height="79" rx="5" fill="#0856CA"/>
<path d="M29.5 54C28.0417 54 26.8021 53.4896 25.7812 52.4688C24.7604 51.4479 24.25 50.2083 24.25 48.75H20.75V29.5C20.75 28.5375 21.0927 27.7135 21.7781 27.0281C22.4635 26.3427 23.2875 26 24.25 26H48.75V33H54L59.25 40V48.75H55.75C55.75 50.2083 55.2396 51.4479 54.2188 52.4688C53.1979 53.4896 51.9583 54 50.5 54C49.0417 54 47.8021 53.4896 46.7812 52.4688C45.7604 51.4479 45.25 50.2083 45.25 48.75H34.75C34.75 50.2083 34.2396 51.4479 33.2188 52.4688C32.1979 53.4896 30.9583 54 29.5 54ZM29.5 50.5C29.9958 50.5 30.4115 50.3323 30.7469 49.9969C31.0823 49.6615 31.25 49.2458 31.25 48.75C31.25 48.2542 31.0823 47.8385 30.7469 47.5031C30.4115 47.1677 29.9958 47 29.5 47C29.0042 47 28.5885 47.1677 28.2531 47.5031C27.9177 47.8385 27.75 48.2542 27.75 48.75C27.75 49.2458 27.9177 49.6615 28.2531 49.9969C28.5885 50.3323 29.0042 50.5 29.5 50.5ZM24.25 45.25H25.65C26.1458 44.725 26.7146 44.3021 27.3562 43.9812C27.9979 43.6604 28.7125 43.5 29.5 43.5C30.2875 43.5 31.0021 43.6604 31.6438 43.9812C32.2854 44.3021 32.8542 44.725 33.35 45.25H45.25V29.5H24.25V45.25ZM50.5 50.5C50.9958 50.5 51.4115 50.3323 51.7469 49.9969C52.0823 49.6615 52.25 49.2458 52.25 48.75C52.25 48.2542 52.0823 47.8385 51.7469 47.5031C51.4115 47.1677 50.9958 47 50.5 47C50.0042 47 49.5885 47.1677 49.2531 47.5031C48.9177 47.8385 48.75 48.2542 48.75 48.75C48.75 49.2458 48.9177 49.6615 49.2531 49.9969C49.5885 50.3323 50.0042 50.5 50.5 50.5ZM48.75 41.75H56.1875L52.25 36.5H48.75V41.75Z" fill="white"/>
</svg>
