<svg width="79" height="79" viewBox="0 0 79 79" fill="none" xmlns="http://www.w3.org/2000/svg">
<rect width="79" height="79" rx="5" fill="#0856CA"/>
<path d="M37.55 48.05L49.8875 35.7125L47.4375 33.2625L37.55 43.15L32.5625 38.1625L30.1125 40.6125L37.55 48.05ZM40 57.5C37.5792 57.5 35.3042 57.0406 33.175 56.1219C31.0458 55.2031 29.1937 53.9562 27.6188 52.3813C26.0438 50.8062 24.7969 48.9542 23.8781 46.825C22.9594 44.6958 22.5 42.4208 22.5 40C22.5 37.5792 22.9594 35.3042 23.8781 33.175C24.7969 31.0458 26.0438 29.1937 27.6188 27.6188C29.1937 26.0438 31.0458 24.7969 33.175 23.8781C35.3042 22.9594 37.5792 22.5 40 22.5C42.4208 22.5 44.6958 22.9594 46.825 23.8781C48.9542 24.7969 50.8062 26.0438 52.3813 27.6188C53.9562 29.1937 55.2031 31.0458 56.1219 33.175C57.0406 35.3042 57.5 37.5792 57.5 40C57.5 42.4208 57.0406 44.6958 56.1219 46.825C55.2031 48.9542 53.9562 50.8062 52.3813 52.3813C50.8062 53.9562 48.9542 55.2031 46.825 56.1219C44.6958 57.0406 42.4208 57.5 40 57.5ZM40 54C43.9083 54 47.2188 52.6437 49.9312 49.9312C52.6437 47.2188 54 43.9083 54 40C54 36.0917 52.6437 32.7812 49.9312 30.0687C47.2188 27.3562 43.9083 26 40 26C36.0917 26 32.7812 27.3562 30.0687 30.0687C27.3562 32.7812 26 36.0917 26 40C26 43.9083 27.3562 47.2188 30.0687 49.9312C32.7812 52.6437 36.0917 54 40 54Z" fill="white"/>
</svg>
