<svg width="32" height="32" viewBox="0 0 32 32" fill="none" xmlns="http://www.w3.org/2000/svg">
<g clip-path="url(#clip0_17_34)">
<path d="M7.99999 18.6667H18.6667V16H7.99999V18.6667ZM7.99999 14.6667H24V12H7.99999V14.6667ZM7.99999 10.6667H24V10.5333C23.1778 10.3556 22.4278 10.05 21.75 9.61667C21.0722 9.18333 20.4889 8.64444 20 8H7.99999V10.6667ZM2.66666 29.3333V5.33333C2.66666 4.6 2.92777 3.97222 3.44999 3.45C3.97221 2.92778 4.59999 2.66667 5.33332 2.66667H18.8C18.7111 3.11111 18.6667 3.55556 18.6667 4C18.6667 4.44444 18.7111 4.88889 18.8 5.33333H5.33332V22.8333L6.86666 21.3333H26.6667V10.5333C27.1778 10.4222 27.6555 10.2722 28.1 10.0833C28.5444 9.89445 28.9555 9.64444 29.3333 9.33333V21.3333C29.3333 22.0667 29.0722 22.6944 28.55 23.2167C28.0278 23.7389 27.4 24 26.6667 24H7.99999L2.66666 29.3333ZM25.3333 8C24.2222 8 23.2778 7.61111 22.5 6.83333C21.7222 6.05556 21.3333 5.11111 21.3333 4C21.3333 2.88889 21.7222 1.94444 22.5 1.16667C23.2778 0.388889 24.2222 0 25.3333 0C26.4444 0 27.3889 0.388889 28.1667 1.16667C28.9444 1.94444 29.3333 2.88889 29.3333 4C29.3333 5.11111 28.9444 6.05556 28.1667 6.83333C27.3889 7.61111 26.4444 8 25.3333 8Z" fill="#fdfdfdfd"/>
</g>
<defs>
<clipPath id="clip0_17_34">
<rect width="32" height="32" fill="white"/>
</clipPath>
</defs>
</svg>
