<svg width="79" height="79" viewBox="0 0 79 79" fill="none" xmlns="http://www.w3.org/2000/svg">
<rect width="79" height="79" rx="5" fill="#0856CA"/>
<path d="M32 50.5H46V47H32V50.5ZM32 43.5H46V40H32V43.5ZM28.5 57.5C27.5375 57.5 26.7135 57.1573 26.0281 56.4719C25.3427 55.7865 25 54.9625 25 54V26C25 25.0375 25.3427 24.2135 26.0281 23.5281C26.7135 22.8427 27.5375 22.5 28.5 22.5H42.5L53 33V54C53 54.9625 52.6573 55.7865 51.9719 56.4719C51.2864 57.1573 50.4625 57.5 49.5 57.5H28.5ZM40.75 34.75V26H28.5V54H49.5V34.75H40.75Z" fill="white"/>
</svg>
