<svg width="40" height="40" viewBox="0 0 40 40" fill="none" xmlns="http://www.w3.org/2000/svg">
<path d="M6.66665 28.8887V7.77792H3.33331V5H9.44456V26.1113H35V28.8887H6.66665ZM9.41998 36.6667C8.64915 36.6667 7.99762 36.3942 7.4654 35.8492C6.9329 35.3042 6.66665 34.6492 6.66665 33.8842C6.66665 33.1189 6.9329 32.4654 7.4654 31.9238C7.99762 31.3821 8.64915 31.1113 9.41998 31.1113C10.1905 31.1113 10.8503 31.3837 11.3991 31.9287C11.9478 32.4735 12.2221 33.1285 12.2221 33.8938C12.2221 34.659 11.9478 35.3125 11.3991 35.8542C10.8503 36.3958 10.1905 36.6667 9.41998 36.6667ZM11.9446 23.6113V14.1667H21.3887V23.6113H11.9446ZM14.7221 20.8333H18.6112V16.9446H14.7221V20.8333ZM23.6112 23.6113V14.1667H33.0554V23.6113H23.6112ZM26.3887 20.8333H30.2779V16.9446H26.3887V20.8333ZM32.2175 36.6667C31.4522 36.6667 30.7987 36.3942 30.2571 35.8492C29.7154 35.3042 29.4446 34.6492 29.4446 33.8842C29.4446 33.1189 29.7171 32.4654 30.2621 31.9238C30.8068 31.3821 31.4618 31.1113 32.2271 31.1113C32.9923 31.1113 33.6458 31.3837 34.1875 31.9287C34.7291 32.4735 35 33.1285 35 33.8938C35 34.659 34.7275 35.3125 34.1825 35.8542C33.6375 36.3958 32.9825 36.6667 32.2175 36.6667Z" fill="#0856CA"/>
</svg>
