<svg width="40" height="40" viewBox="0 0 40 40" fill="none" xmlns="http://www.w3.org/2000/svg">
<path d="M18.6667 31.6112H21.4446V23.7083L24.6112 26.8749L26.5554 24.9166L20 18.472L13.5 24.972L15.4583 26.9166L18.6667 23.7083V31.6112ZM9.44458 36.6666C8.69458 36.6666 8.04403 36.3912 7.49292 35.8403C6.94208 35.2892 6.66667 34.6387 6.66667 33.8887V6.11117C6.66667 5.36117 6.94208 4.71061 7.49292 4.1595C8.04403 3.60867 8.69458 3.33325 9.44458 3.33325H23.9167L33.3333 12.7499V33.8887C33.3333 34.6387 33.0579 35.2892 32.5071 35.8403C31.956 36.3912 31.3054 36.6666 30.5554 36.6666H9.44458ZM22.5279 14.0553V6.11117H9.44458V33.8887H30.5554V14.0553H22.5279Z" fill="#0856CA"/>
</svg>
