<svg width="143" height="25" viewBox="0 0 143 25" fill="none" xmlns="http://www.w3.org/2000/svg">
<path d="M6.296 21.776L0.224 11.312L6.272 0.847999H11.048L4.832 11.312L11.048 21.776H6.296ZM25.7754 20.336C24.4794 20.336 23.3354 20.104 22.3434 19.64C21.3514 19.176 20.5754 18.512 20.0154 17.648C19.4554 16.784 19.1754 15.744 19.1754 14.528V13.856H22.2954V14.528C22.2954 15.536 22.6074 16.296 23.2314 16.808C23.8554 17.304 24.7034 17.552 25.7754 17.552C26.8634 17.552 27.6714 17.336 28.1994 16.904C28.7434 16.472 29.0154 15.92 29.0154 15.248C29.0154 14.784 28.8794 14.408 28.6074 14.12C28.3514 13.832 27.9674 13.6 27.4554 13.424C26.9594 13.232 26.3514 13.056 25.6314 12.896L25.0794 12.776C23.9274 12.52 22.9354 12.2 22.1034 11.816C21.2874 11.416 20.6554 10.896 20.2074 10.256C19.7754 9.616 19.5594 8.784 19.5594 7.76C19.5594 6.736 19.7994 5.864 20.2794 5.144C20.7754 4.408 21.4634 3.848 22.3434 3.464C23.2394 3.064 24.2874 2.864 25.4874 2.864C26.6874 2.864 27.7514 3.072 28.6794 3.488C29.6234 3.888 30.3594 4.496 30.8874 5.312C31.4314 6.112 31.7034 7.12 31.7034 8.336V9.056H28.5834V8.336C28.5834 7.696 28.4554 7.184 28.1994 6.8C27.9594 6.4 27.6074 6.112 27.1434 5.936C26.6794 5.744 26.1274 5.648 25.4874 5.648C24.5274 5.648 23.8154 5.832 23.3514 6.2C22.9034 6.552 22.6794 7.04 22.6794 7.664C22.6794 8.08 22.7834 8.432 22.9914 8.72C23.2154 9.008 23.5434 9.248 23.9754 9.44C24.4074 9.632 24.9594 9.8 25.6314 9.944L26.1834 10.064C27.3834 10.32 28.4234 10.648 29.3034 11.048C30.1994 11.448 30.8954 11.976 31.3914 12.632C31.8874 13.288 32.1354 14.128 32.1354 15.152C32.1354 16.176 31.8714 17.08 31.3434 17.864C30.8314 18.632 30.0954 19.24 29.1354 19.688C28.1914 20.12 27.0714 20.336 25.7754 20.336ZM34.5941 20V8.096H37.5701V9.392H38.0021C38.2101 8.992 38.5541 8.648 39.0341 8.36C39.5141 8.056 40.1461 7.904 40.9301 7.904C41.7781 7.904 42.4581 8.072 42.9701 8.408C43.4821 8.728 43.8741 9.152 44.1461 9.68H44.5781C44.8501 9.168 45.2341 8.744 45.7301 8.408C46.2261 8.072 46.9301 7.904 47.8421 7.904C48.5781 7.904 49.2421 8.064 49.8341 8.384C50.4421 8.688 50.9221 9.16 51.2741 9.8C51.6421 10.424 51.8261 11.216 51.8261 12.176V20H48.8021V12.392C48.8021 11.736 48.6341 11.248 48.2981 10.928C47.9621 10.592 47.4901 10.424 46.8821 10.424C46.1941 10.424 45.6581 10.648 45.2741 11.096C44.9061 11.528 44.7221 12.152 44.7221 12.968V20H41.6981V12.392C41.6981 11.736 41.5301 11.248 41.1941 10.928C40.8581 10.592 40.3861 10.424 39.7781 10.424C39.0901 10.424 38.5541 10.648 38.1701 11.096C37.8021 11.528 37.6181 12.152 37.6181 12.968V20H34.5941ZM58.7744 20.336C57.9264 20.336 57.1664 20.192 56.4944 19.904C55.8224 19.6 55.2864 19.168 54.8864 18.608C54.5024 18.032 54.3104 17.336 54.3104 16.52C54.3104 15.704 54.5024 15.024 54.8864 14.48C55.2864 13.92 55.8304 13.504 56.5184 13.232C57.2224 12.944 58.0224 12.8 58.9184 12.8H62.1824V12.128C62.1824 11.568 62.0064 11.112 61.6544 10.76C61.3024 10.392 60.7424 10.208 59.9744 10.208C59.2224 10.208 58.6624 10.384 58.2944 10.736C57.9264 11.072 57.6864 11.512 57.5744 12.056L54.7904 11.12C54.9824 10.512 55.2864 9.96 55.7024 9.464C56.1344 8.952 56.7024 8.544 57.4064 8.24C58.1264 7.92 58.9984 7.76 60.0224 7.76C61.5904 7.76 62.8304 8.152 63.7424 8.936C64.6544 9.72 65.1104 10.856 65.1104 12.344V16.784C65.1104 17.264 65.3344 17.504 65.7824 17.504H66.7424V20H64.7264C64.1344 20 63.6464 19.856 63.2624 19.568C62.8784 19.28 62.6864 18.896 62.6864 18.416V18.392H62.2304C62.1664 18.584 62.0224 18.84 61.7984 19.16C61.5744 19.464 61.2224 19.736 60.7424 19.976C60.2624 20.216 59.6064 20.336 58.7744 20.336ZM59.3024 17.888C60.1504 17.888 60.8384 17.656 61.3664 17.192C61.9104 16.712 62.1824 16.08 62.1824 15.296V15.056H59.1344C58.5744 15.056 58.1344 15.176 57.8144 15.416C57.4944 15.656 57.3344 15.992 57.3344 16.424C57.3344 16.856 57.5024 17.208 57.8384 17.48C58.1744 17.752 58.6624 17.888 59.3024 17.888ZM68.9534 20V8.096H71.9294V9.44H72.3614C72.5374 8.96 72.8254 8.608 73.2254 8.384C73.6414 8.16 74.1214 8.048 74.6654 8.048H76.1054V10.736H74.6174C73.8494 10.736 73.2174 10.944 72.7214 11.36C72.2254 11.76 71.9774 12.384 71.9774 13.232V20H68.9534ZM83.0291 20C82.2451 20 81.6051 19.76 81.1091 19.28C80.6291 18.784 80.3891 18.128 80.3891 17.312V10.592H77.4131V8.096H80.3891V4.4H83.4131V8.096H86.6771V10.592H83.4131V16.784C83.4131 17.264 83.6371 17.504 84.0851 17.504H86.3891V20H83.0291ZM89.4144 20V3.2H92.4384V20H89.4144ZM101.453 20.336C100.269 20.336 99.2054 20.096 98.2614 19.616C97.3174 19.136 96.5734 18.44 96.0294 17.528C95.4854 16.616 95.2134 15.52 95.2134 14.24V13.856C95.2134 12.576 95.4854 11.48 96.0294 10.568C96.5734 9.656 97.3174 8.96 98.2614 8.48C99.2054 8 100.269 7.76 101.453 7.76C102.637 7.76 103.701 8 104.645 8.48C105.589 8.96 106.333 9.656 106.877 10.568C107.421 11.48 107.693 12.576 107.693 13.856V14.24C107.693 15.52 107.421 16.616 106.877 17.528C106.333 18.44 105.589 19.136 104.645 19.616C103.701 20.096 102.637 20.336 101.453 20.336ZM101.453 17.648C102.381 17.648 103.149 17.352 103.757 16.76C104.365 16.152 104.669 15.288 104.669 14.168V13.928C104.669 12.808 104.365 11.952 103.757 11.36C103.165 10.752 102.397 10.448 101.453 10.448C100.525 10.448 99.7574 10.752 99.1494 11.36C98.5414 11.952 98.2374 12.808 98.2374 13.928V14.168C98.2374 15.288 98.5414 16.152 99.1494 16.76C99.7574 17.352 100.525 17.648 101.453 17.648ZM109.909 14.096V13.712C109.909 12.464 110.157 11.4 110.653 10.52C111.149 9.624 111.805 8.944 112.621 8.48C113.453 8 114.357 7.76 115.333 7.76C116.421 7.76 117.245 7.952 117.805 8.336C118.365 8.72 118.773 9.12 119.029 9.536H119.461V8.096H122.437V22.112C122.437 22.928 122.197 23.576 121.717 24.056C121.237 24.552 120.597 24.8 119.797 24.8H111.829V22.16H118.741C119.189 22.16 119.413 21.92 119.413 21.44V18.344H118.981C118.821 18.6 118.597 18.864 118.309 19.136C118.021 19.392 117.637 19.608 117.157 19.784C116.677 19.96 116.069 20.048 115.333 20.048C114.357 20.048 113.453 19.816 112.621 19.352C111.805 18.872 111.149 18.192 110.653 17.312C110.157 16.416 109.909 15.344 109.909 14.096ZM116.197 17.408C117.125 17.408 117.901 17.112 118.525 16.52C119.149 15.928 119.461 15.096 119.461 14.024V13.784C119.461 12.696 119.149 11.864 118.525 11.288C117.917 10.696 117.141 10.4 116.197 10.4C115.269 10.4 114.493 10.696 113.869 11.288C113.245 11.864 112.933 12.696 112.933 13.784V14.024C112.933 15.096 113.245 15.928 113.869 16.52C114.493 17.112 115.269 17.408 116.197 17.408ZM131.427 21.776L137.643 11.312L131.427 0.847999H136.203L142.251 11.312L136.179 21.776H131.427Z" fill="#313131"/>
</svg>
